<?xml version="1.0" encoding="utf-8"?>
<!-- Generator: Adobe Illustrator 22.0.1, SVG Export Plug-In . SVG Version: 6.00 Build 0)  -->
<svg version="1.1" xmlns="http://www.w3.org/2000/svg" xmlns:xlink="http://www.w3.org/1999/xlink" x="0px" y="0px"
	 viewBox="0 0 1728 1152" style="enable-background:new 0 0 1728 1152;" xml:space="preserve">
<style type="text/css">
	.st0{display:none;}
	.st1{display:inline;fill:#E3D3BA;}
	.st2{display:inline;fill:#FFFFFF;}
	.st3{display:inline;}
	.st4{display:inline;fill:#808080;}
	.st5{fill:#B3B3B3;}
</style>
<g id="Layer_1" class="st0">
	<path class="st1" d="M1387.3,439.4c-2.6,4.2-5.2,10-10.7,11c-123.9-18.7-255.2,108.4-305.2,140.4c0.4,8.1,1,17.5,1.7,28.8
		c3.2,59.9-6.8,86.5-40.1,136.3c-33.3,49.9-170,159-170,159S726.9,805.4,693.7,755.5c-33.2-49.9-43.1-76.6-39.7-136.4
		c0.9-16.3,1.8-28.4,2.2-38.7C601.8,541.8,470.7,433.8,373.5,449c-83.1,16.9-34-17.1-1.6-27.2c28.1-8.8,80.6-6.7,117.4,8.6
		c53.5,22.3,103.2,53.2,153.7,81.9c12.2,6.9,24.5,13.7,36.9,20.2c53.4,25.9,121.3,36.9,194.9,37c58.4,0.1,125.4,0.3,195.1-36.5
		c3-1.6,6-3.1,8.9-4.7c60.3-32.8,116.6-76,182-96.9c35.9-10.9,80.5-18.3,117.4-8.2l0,0C1383.1,426.4,1388.6,432.3,1387.3,439.4z"/>
	<path class="st2" d="M904.3,610.7C904.3,610.7,904.3,610.7,904.3,610.7c0,31.9,25.8,57.8,57.7,57.8c31.9,0,57.7-25.8,57.7-57.7
		c0-22.9-13.4-42.6-32.7-51.9l23-14.4c20.5,14.9,33.9,39.1,33.9,66.4c0,45.2-36.7,81.9-81.9,81.9c-40.4,0-73.9-29.2-80.7-67.6
		L904.3,610.7z"/>
	<path class="st2" d="M846.6,625.1c-6.8,38.4-40.3,67.6-80.7,67.6c-45.2,0-81.9-36.7-81.9-81.9c0-27.3,13.4-51.5,33.9-66.4l4.2,2.6
		l18.4,11.5c0,0.1,0,0.2,0,0.4c0.1,0.8,0.2,1.6,0.2,2.5c0,8.2-6.7,14.9-14.9,14.9c-1.9,0-3.7-0.4-5.4-1
		c-7.7,9.8-12.3,22.1-12.3,35.5c0,31.9,25.8,57.7,57.7,57.7c31.9,0,57.7-25.8,57.7-57.7v0L846.6,625.1z"/>
	<path class="st2" d="M885.1,721c0,0-12.5,50-25.1,75C847.5,771,835,721,835,721c0-25.1,25.1-29.2,25.1-29.2S885.1,695.9,885.1,721z
		"/>
	<g class="st3">
		
			<image style="overflow:visible;" width="512" height="512" id="wsHXHb" xlink:href="58F8537AECE79F56.jpg"  transform="matrix(1.0137 0 0 1.0293 1392 781)">
		</image>
	</g>
	
		<image style="display:inline;overflow:visible;" width="308" height="216" xlink:href="../../../../Desktop/Screen Shot 2018-02-06 at 4.12.58 PM.png"  transform="matrix(1.4026 0 0 1.4026 639 -2.8831)">
	</image>
	<g id="_x35_Yfwq5.tif" class="st3">
		
			<image style="overflow:visible;" width="2032" height="2029" id="Layer_0" xlink:href="58F8537AECE79F5A.png"  transform="matrix(0.24 0 0 0.24 1392 -14)">
		</image>
	</g>
	<path class="st3" d="M370.2,553.7c10.9,5.2,18.7,13.8,24.9,23.7c16.9,26.6,9.9,60.5-16.3,81.5c-22.7,18.2-48.8,24.8-77.3,24
		c-26.3-0.7-49.8-8.8-70.2-25.8c-31.6-26.5-30.8-70.9,0.1-96.4c11.7-9.7,24.6-17,39.3-21.1c1.6-0.4,3.3-0.5,4.9-0.8
		c-1.3,0.6-2.6,1.3-4,1.7c-13,3.7-24.7,9.9-35.3,18.3c-2,1.6-3.8,3.5-5.6,5.2c0.3,0.6,0.6,1.1,0.9,1.7c3-1.3,6.6-2,8.9-4.1
		c33.2-30.1,100.2-30.3,133.7,0.9c1.9,1.7,5,2.1,7.6,3.1c0.3-0.6,0.6-1.1,0.9-1.7C378.5,560.6,374.4,557.1,370.2,553.7z
		 M315.6,578.7c-0.6,0.6-1.6,1.1-1.7,1.7c-0.2,1.2-0.2,2.8,0.4,3.7c0.4,0.6,2.9,0.5,3.2,0.1c0.6-1.1,0.6-2.6,0.3-3.9
		c-0.2-0.7-1.5-1.1-2.3-1.6c6.8-7.2,8-7.1,11.7,0.5c0.1,0.2,0.5,0.2,1.2,0.3c0.9-1.6,2-3.3,2.9-5c6-11.4,14.6-17.4,28-13.7
		c1.4,0.4,2.9,0.1,5.2,0.1c-31.2-25.9-91.5-22-115.1,0.5c3-0.4,5.2-0.6,7.4-1c10.6-2.3,18.5,1.2,23.7,10.8c1.6,3,3.7,5.7,5.4,8.4
		c2-2.5,3.8-4.7,5.6-6.9c2.8,2.2,4.9,3.8,6.1,4.8c-0.9,2.4-1.6,4.1-2,5.9c0,0.2,2.6,1.6,3.1,1.2c4.4-3.7,4.6,0.3,5.9,2.8
		c0.5,1.1,1.3,2,2.5,3.8c1.2-2.2,1.8-3.7,2.7-4.9C311.7,583.6,313.7,581.2,315.6,578.7z M386.6,576.3c0.1-0.7,0.2-1.4,0.3-2.1
		c-8.4-2.8-16.9-5.4-26-5.8c-8.2-0.3-14.1,2.9-18.3,9.8c-6.5,10.5-9.4,22.3-12.7,34c-1.9,6.7-4.6,13.7-8.7,19.3
		c-8.1,10.9-21.2,10.9-29-0.3c-4.2-6.1-6.2-13.8-8.9-20.8c-4-10.5-7.4-21.3-11.9-31.6c-2.3-5.4-6.8-9.6-13.3-10.2
		c-10.7-1-20.8,1.6-30.7,5.4c-0.3,0.1-0.4,0.8-1.2,2.7c7.1-1.3,13.2-2.3,19.3-3.6c12-2.6,19.7,0.4,24.3,11.7
		c4.5,11.1,7.3,22.8,10.8,34.2c0,0.1-0.4,0.4-0.8,0.8c-4.1-3-8.3-5.9-12.4-9.1c-6.1-4.7-7.1-2.9-2.6-11.3c0.3-0.6,0.2-1.4,0.4-2.5
		c-3.4,2.1-6.3,5.1-9.3,5.2c-3,0.2-6.2-2.5-11.1-4.8c3.8-2.9,6.6-5.1,9.4-7.3c-5,1.1-9.1,4.1-13.6,4.8c-4.5,0.7-9.3-1-14.4-1.7
		c-2.6,9.4-1.5,18.5,2.3,27.3c7.9,18.2,23,28.2,40.5,35.8c3.8,1.6,6,0.8,7.5-2.7c3.3-7.3,6.5-14.7,9.2-20.8
		c4.3,3.9,9.2,8.5,14.3,12.9c4.5,3.9,9.3,3.5,13.6-0.1c5.1-4.2,9.8-8.7,14.8-13.2c0.6,2.2,1.1,5,2.2,7.5c2.2,5.2,4.6,10.3,7.3,15.2
		c0.7,1.2,3.5,2.4,4.7,1.9c16.4-6.2,30.8-15.3,40-30.8c5.9-10,7.9-21,5.1-32.8c-5,0.7-9.9,2.5-14.4,1.8c-4.6-0.7-8.8-3.9-13.2-6
		c-0.4,0.5-0.8,1-1.2,1.5c2.9,2.3,5.8,4.7,8.5,6.8c-6.7,6.3-12.8,5.5-18.7-0.4c0.7,2.6,1.7,4.5,2.4,6.5c0.4,1.1,0.6,3.1,0.1,3.5
		c-5.8,4.5-11.7,8.7-17.6,13.1c1.9-9.9,4.6-19,7.4-28c4.9-15.6,12.8-24,32.3-17.8C377.5,575.7,382.1,575.7,386.6,576.3z M241.9,583
		c-0.1-0.5-0.2-0.9-0.3-1.4c-7.9,1.5-15.9,2.9-23.8,4.7c-1.3,0.3-2.7,2.3-3.1,3.8c-3.8,13.4-2.8,26.5,3.8,38.8
		c9.8,18.5,26.1,29.4,44.9,37c4.9,2,5.8,1.5,7.6-4.3c-11.5-3.4-22-8.7-30.7-16.9c-14.3-13.5-22.7-29.4-20.2-49.7
		c0.4-2.9,1.7-4.3,4.3-5.2C230.3,587.6,236.1,585.2,241.9,583z M372.5,582c-0.1,0.3-0.2,0.6-0.3,0.9c0.9,0.5,1.8,1.1,2.8,1.5
		c5.1,2,10.3,3.7,15.3,6c1.5,0.7,3.4,2.7,3.4,4c-0.4,7.9,0.1,16.2-2.3,23.6c-6.9,21.2-22.7,34.2-43.2,41.9c-1.9,0.7-3.8,1.4-5.9,2.1
		c3.3,5.6,3.3,5.6,6.9,4.2c12.8-4.9,24.3-11.8,33.9-21.4c14.5-14.6,20.7-31.9,16.2-52.3c-0.5-2.3-2.3-5.5-4.1-6
		C387.8,584.5,380.1,583.4,372.5,582z M324.4,650.4c-2.9,7.1,2.2,20.3,9.4,23.3c0.8,0.3,2.1,0.2,2.6-0.3c0.4-0.5,0.4-1.9,0-2.6
		C332.5,663.9,328.3,657,324.4,650.4z M290.7,592c3.8,8.4,9.4,11.7,17.8,11.4c6.5-0.2,12-4.2,14.4-11
		C312.3,601.1,302,601.3,290.7,592z M289.3,649c-2.4,5-4.2,9.1-6.3,13c-2.1,3.8-4.6,7.5-7.5,12.1C285.6,672.6,291.8,660.8,289.3,649
		z M318.3,681.3c-2.1-8.3-4.1-16.2-6-23.8C307.7,670.6,309.9,680.1,318.3,681.3z M301.2,657.8c-2,7.8-3.9,15.7-5.9,23.6
		C303.6,679.8,306,669.3,301.2,657.8z"/>
	<path class="st3" d="M221.2,459.7c10.9,5.2,18.7,13.8,24.9,23.7c16.9,26.6,9.9,60.5-16.3,81.5c-22.7,18.2-48.8,24.8-77.3,24
		c-26.3-0.7-49.8-8.8-70.2-25.8c-31.6-26.5-30.8-70.9,0.1-96.4c11.7-9.7,24.6-17,39.3-21.1c1.6-0.4,3.3-0.5,4.9-0.8
		c-1.3,0.6-2.6,1.3-4,1.7c-13,3.7-24.7,9.9-35.3,18.3c-2,1.6-3.8,3.5-5.6,5.2c0.3,0.6,0.6,1.1,0.9,1.7c3-1.3,6.6-2,8.9-4.1
		c33.2-30.1,100.2-30.3,133.7,0.9c1.9,1.7,5,2.1,7.6,3.1c0.3-0.6,0.6-1.1,0.9-1.7C229.5,466.6,225.4,463.1,221.2,459.7z
		 M166.6,484.7c-0.6,0.6-1.6,1.1-1.7,1.7c-0.2,1.2-0.2,2.8,0.4,3.7c0.4,0.6,2.9,0.5,3.2,0.1c0.6-1.1,0.6-2.6,0.3-3.9
		c-0.2-0.7-1.5-1.1-2.3-1.6c6.8-7.2,8-7.1,11.7,0.5c0.1,0.2,0.5,0.2,1.2,0.3c0.9-1.6,2-3.3,2.9-5c6-11.4,14.6-17.4,28-13.7
		c1.4,0.4,2.9,0.1,5.2,0.1c-31.2-25.9-91.5-22-115.1,0.5c3-0.4,5.2-0.6,7.4-1c10.6-2.3,18.5,1.2,23.7,10.8c1.6,3,3.7,5.7,5.4,8.4
		c2-2.5,3.8-4.7,5.6-6.9c2.8,2.2,4.9,3.8,6.1,4.8c-0.9,2.4-1.6,4.1-2,5.9c0,0.2,2.6,1.6,3.1,1.2c4.4-3.7,4.6,0.3,5.9,2.8
		c0.5,1.1,1.3,2,2.5,3.8c1.2-2.2,1.8-3.7,2.7-4.9C162.7,489.6,164.7,487.2,166.6,484.7z M237.6,482.3c0.1-0.7,0.2-1.4,0.3-2.1
		c-8.4-2.8-16.9-5.4-26-5.8c-8.2-0.3-14.1,2.9-18.3,9.8c-6.5,10.5-9.4,22.3-12.7,34c-1.9,6.7-4.6,13.7-8.7,19.3
		c-8.1,10.9-21.2,10.9-29-0.3c-4.2-6.1-6.2-13.8-8.9-20.8c-4-10.5-7.4-21.3-11.9-31.6c-2.3-5.4-6.8-9.6-13.3-10.2
		c-10.7-1-20.8,1.6-30.7,5.4c-0.3,0.1-0.4,0.8-1.2,2.7c7.1-1.3,13.2-2.3,19.3-3.6c12-2.6,19.7,0.4,24.3,11.7
		c4.5,11.1,7.3,22.8,10.8,34.2c0,0.1-0.4,0.4-0.8,0.8c-4.1-3-8.3-5.9-12.4-9.1c-6.1-4.7-7.1-2.9-2.6-11.3c0.3-0.6,0.2-1.4,0.4-2.5
		c-3.4,2.1-6.3,5.1-9.3,5.2c-3,0.2-6.2-2.5-11.1-4.8c3.8-2.9,6.6-5.1,9.4-7.3c-5,1.1-9.1,4.1-13.6,4.8c-4.5,0.7-9.3-1-14.4-1.7
		c-2.6,9.4-1.5,18.5,2.3,27.3c7.9,18.2,23,28.2,40.5,35.8c3.8,1.6,6,0.8,7.5-2.7c3.3-7.3,6.5-14.7,9.2-20.8
		c4.3,3.9,9.2,8.5,14.3,12.9c4.5,3.9,9.3,3.5,13.6-0.1c5.1-4.2,9.8-8.7,14.8-13.2c0.6,2.2,1.1,5,2.2,7.5c2.2,5.2,4.6,10.3,7.3,15.2
		c0.7,1.2,3.5,2.4,4.7,1.9c16.4-6.2,30.8-15.3,40-30.8c5.9-10,7.9-21,5.1-32.8c-5,0.7-9.9,2.5-14.4,1.8c-4.6-0.7-8.8-3.9-13.2-6
		c-0.4,0.5-0.8,1-1.2,1.5c2.9,2.3,5.8,4.7,8.5,6.8c-6.7,6.3-12.8,5.5-18.7-0.4c0.7,2.6,1.7,4.5,2.4,6.5c0.4,1.1,0.6,3.1,0.1,3.5
		c-5.8,4.5-11.7,8.7-17.6,13.1c1.9-9.9,4.6-19,7.4-28c4.9-15.6,12.8-24,32.3-17.8C228.5,481.7,233.1,481.7,237.6,482.3z M92.9,489
		c-0.1-0.5-0.2-0.9-0.3-1.4c-7.9,1.5-15.9,2.9-23.8,4.7c-1.3,0.3-2.7,2.3-3.1,3.8c-3.8,13.4-2.8,26.5,3.8,38.8
		c9.8,18.5,26.1,29.4,44.9,37c4.9,2,5.8,1.5,7.6-4.3c-11.5-3.4-22-8.7-30.7-16.9c-14.3-13.5-22.7-29.4-20.2-49.7
		c0.4-2.9,1.7-4.3,4.3-5.2C81.3,493.6,87.1,491.2,92.9,489z M223.5,488c-0.1,0.3-0.2,0.6-0.3,0.9c0.9,0.5,1.8,1.1,2.8,1.5
		c5.1,2,10.3,3.7,15.3,6c1.5,0.7,3.4,2.7,3.4,4c-0.4,7.9,0.1,16.2-2.3,23.6c-6.9,21.2-22.7,34.2-43.2,41.9c-1.9,0.7-3.8,1.4-5.9,2.1
		c3.3,5.6,3.3,5.6,6.9,4.2c12.8-4.9,24.3-11.8,33.9-21.4c14.5-14.6,20.7-31.9,16.2-52.3c-0.5-2.3-2.3-5.5-4.1-6
		C238.8,490.5,231.1,489.4,223.5,488z M175.4,556.4c-2.9,7.1,2.2,20.3,9.4,23.3c0.8,0.3,2.1,0.2,2.6-0.3c0.4-0.5,0.4-1.9,0-2.6
		C183.5,569.9,179.3,563,175.4,556.4z M141.7,498c3.8,8.4,9.4,11.7,17.8,11.4c6.5-0.2,12-4.2,14.4-11
		C163.3,507.1,153,507.3,141.7,498z M140.3,555c-2.4,5-4.2,9.1-6.3,13c-2.1,3.8-4.6,7.5-7.5,12.1C136.6,578.6,142.8,566.8,140.3,555
		z M169.3,587.3c-2.1-8.3-4.1-16.2-6-23.8C158.7,576.6,160.9,586.1,169.3,587.3z M152.2,563.8c-2,7.8-3.9,15.7-5.9,23.6
		C154.6,585.8,157,575.3,152.2,563.8z"/>
	<path class="st3" d="M214,710.5c-2,5.3-4.1,10.5-5.8,15.8c-1,3.2-3,3.7-6,3.8c-3.1,0-4.4-1.2-5.2-4c-2.5-8.4-5.2-16.8-7.8-25.2
		c7.3-1.5,7.5-1.3,9.3,5.2c1.3,4.7,2.8,9.4,4.3,14c0.4,0,0.9,0,1.3,0.1c2-5.4,4-10.8,5.8-16.2c0.8-2.5,1.8-3.8,4.8-3.8
		c3.1,0,4,1.5,4.8,3.9c1.8,5.4,3.8,10.7,7,16.1c1.5-4.8,3.4-9.6,4.4-14.5c1.1-5.3,3.9-6.3,9.3-4.5c-3,9.1-5.8,18.3-9.1,27.2
		c-0.4,1.1-3.7,1.6-5.6,1.5c-1.4-0.1-3.4-1.5-3.9-2.8c-2.3-5.4-4.1-11.1-6.1-16.6C214.9,710.5,214.5,710.5,214,710.5z"/>
	<path class="st2" d="M370.2,553.7c4.2,3.4,8.3,6.9,12.5,10.3c-0.3,0.6-0.6,1.1-0.9,1.7c-2.6-1-5.7-1.4-7.6-3.1
		c-33.5-31.2-100.4-31-133.7-0.9c-2.3,2.1-5.9,2.8-8.9,4.1c-0.3-0.6-0.6-1.1-0.9-1.7c1.9-1.8,3.6-3.7,5.6-5.2
		c10.6-8.4,22.3-14.6,35.3-18.3c1.4-0.4,2.7-1.1,4-1.7c3.2-0.4,6.3-0.8,9.5-1.3c11.9-0.5,23.8-1,35.7-1.5
		c11.9,1.4,23.6,3.8,34.4,9.1C360.4,547.7,365.2,550.8,370.2,553.7z"/>
	<path class="st3" d="M319.4,729.5c0-9.3,0-18.7,0.1-28.3c3.5-1.4,6.2-0.7,8.7,2.4c4,5,8.3,9.7,13.6,14.1c0-5.4,0-10.7,0-15.9
		c6.8-2.3,7.7-1.7,7.7,4.5c0,6.2,0.1,12.3-0.1,18.5c-0.1,1.9-1.2,3.7-1.8,5.5c-2.3-0.8-5.2-1.1-6.9-2.7c-3.8-3.7-7-8-10.5-12
		c-0.8-0.9-1.8-1.7-3.7-3.5c0,5,0,8.8,0,12.5C326.4,730.7,326.1,730.9,319.4,729.5z"/>
	<path class="st3" d="M166.4,699.8c14.6-0.1,22.4,9,18.2,20.8c-1,2.8-3.2,5.7-5.7,7.1c-7.6,4.3-15.7,4.2-23.4,0.1
		c-5.5-2.9-7.7-9.3-6.3-16.6c1.1-5.4,6.4-10,12.8-11.1C163.7,699.9,165.4,699.8,166.4,699.8z M167.1,725.5c6.3,0.1,11-4.3,11-10.3
		c0-5.9-4.3-10.2-10.5-10.3c-6.4-0.2-10.8,4-10.9,10.3C156.7,721.2,160.9,725.4,167.1,725.5z"/>
	<path class="st3" d="M382.1,706.1c-4.6,0-9.2,0-14.2,0c0,2.2,0,4.1,0,6.9c3.2,0,6.5,0.2,9.7,0c3.4-0.2,4.6,1.2,3.4,5.2
		c-2.9,0-6.2-0.3-9.4,0.1c-1.5,0.2-3.6,1.6-3.9,2.8c-0.8,2.9,1.1,4.2,3.9,4.2c2.7,0,5.3,0.2,8,0c3.4-0.2,4.6,1,3.5,4.8
		c-5.7,0-11.5,0.2-17.2-0.1c-3.8-0.2-6-2.7-6-6.7c0-7.3,0-14.6,0-22.7c7.1,0,14-0.1,20.8,0.2c0.9,0,1.7,2.6,2.6,4
		C383,705.3,382.5,705.7,382.1,706.1z"/>
	<path class="st3" d="M389.7,724.5c4.8,0.7,7.8,1.6,10.6,1.4c1.8-0.1,3.4-2,5.1-3c-1.3-1.3-2.3-3-3.9-3.9c-1.8-1.1-4.5-0.9-6-2.3
		c-2.2-2-4.9-4.7-5-7.2c-0.1-2.5,2.4-6.6,4.6-7.2c4.8-1.4,10-1.3,15.1-1.3c0.9,0,1.8,2.7,3.5,5.4c-4.3-0.4-7.1-1.1-9.7-0.8
		c-1.9,0.2-3.6,1.7-5.5,2.6c1.4,1.3,2.7,2.9,4.3,3.9c1.4,0.9,3.2,1,4.7,1.6c3.6,1.4,5.9,3.9,5.9,7.8c0,4.2-2.1,7.8-6.3,8.6
		c-4.5,0.8-9.2,0.6-13.7,0.1C392.4,729.9,391.5,727.1,389.7,724.5z"/>
	<path class="st3" d="M273,724.5c4.4,0.6,7.6,1.3,10.6,1.2c1.6-0.1,3.1-1.9,4.7-2.9c-1.2-1.4-2.2-3.1-3.7-4
		c-1.8-1.1-4.1-1.4-6.1-2.2c-3.5-1.4-5.9-4.2-5-7.7c0.7-2.8,3.1-6.5,5.5-7.3c4.4-1.4,9.4-1.1,14.2-0.9c1.1,0.1,2,2.8,3.6,5.2
		c-4.8-0.2-8.2-0.7-11.6-0.4c-1.3,0.1-2.4,1.7-3.7,2.7c1.1,1.1,2,2.5,3.3,3.2c1.9,1,4.1,1.4,6.1,2.2c3.4,1.3,5.4,3.8,5.5,7.5
		c0.1,3.9-1.6,7.4-5.3,8.1c-4.9,0.9-10.1,0.8-15.1,0.4C275.1,729.6,274.3,726.7,273,724.5z"/>
	<path class="st3" d="M418.5,705.9c-1.3-4.2,0.2-5.3,3.8-5.2c7,0.2,14,0.1,21,0.1c4.5,0,4.5,0.1,3.5,5c-0.1,0.1-0.3,0.3-0.4,0.3
		c-10,1-10,1-9.9,11.3c0,2.3,0,4.7,0,7c-0.1,6.7-0.1,6.7-7.6,5.6c0-5.6-0.3-11.4,0.1-17.1c0.3-5-0.9-7.6-6.4-6.7
		C421.3,706.3,420,706,418.5,705.9z"/>
	<path class="st3" d="M246,700.6c2.4,0,4.5,0,7.2,0c0,6.2,0.2,12.3-0.1,18.4c-0.2,4.6,1.6,6.4,6.1,6.1c2.8-0.2,5.6,0,8.6,0
		c1.2,2.8,1.7,5-2.4,5c-4.3,0-8.7,0-13-0.2c-3.6-0.2-6.3-2-6.4-5.8C245.8,716.3,246,708.6,246,700.6z"/>
	<path class="st3" d="M320.8,536.1c-11.9,0.5-23.8,1-35.7,1.5c3.2-0.7,6.3-2.1,9.5-2.1C303.3,535.3,312.1,535.8,320.8,536.1z"/>
	<path class="st2" d="M386.6,576.3c-4.5-0.6-9.1-0.6-13.3-2c-19.5-6.3-27.4,2.2-32.3,17.8c-2.8,9-5.5,18.1-7.4,28
		c5.9-4.3,11.8-8.6,17.6-13.1c0.6-0.4,0.3-2.4-0.1-3.5c-0.7-2-1.7-3.8-2.4-6.5c6,5.9,12,6.7,18.7,0.4c-2.7-2.1-5.6-4.5-8.5-6.8
		c0.4-0.5,0.8-1,1.2-1.5c4.4,2.1,8.6,5.3,13.2,6c4.5,0.7,9.3-1.1,14.4-1.8c2.8,11.8,0.8,22.7-5.1,32.8c-9.1,15.5-23.6,24.5-40,30.8
		c-1.2,0.5-4-0.7-4.7-1.9c-2.8-4.9-5.1-10-7.3-15.2c-1.1-2.5-1.6-5.3-2.2-7.5c-5,4.5-9.7,9-14.8,13.2c-4.3,3.6-9.1,3.9-13.6,0.1
		c-5.1-4.4-10-9-14.3-12.9c-2.7,6.2-5.9,13.5-9.2,20.8c-1.6,3.5-3.7,4.3-7.5,2.7c-17.4-7.5-32.6-17.6-40.5-35.8
		c-3.8-8.7-4.9-17.8-2.3-27.3c5,0.7,9.9,2.4,14.4,1.7c4.5-0.7,8.6-3.7,13.6-4.8c-2.8,2.2-5.6,4.4-9.4,7.3c4.9,2.3,8.1,5,11.1,4.8
		c3-0.2,5.9-3.2,9.3-5.2c-0.2,1.1-0.1,1.9-0.4,2.5c-4.5,8.3-3.5,6.6,2.6,11.3c4.1,3.1,8.3,6.1,12.4,9.1c0.5-0.4,0.9-0.7,0.8-0.8
		c-3.5-11.4-6.4-23.1-10.8-34.2c-4.6-11.3-12.3-14.3-24.3-11.7c-6,1.3-12.2,2.3-19.3,3.6c0.8-1.9,0.9-2.6,1.2-2.7
		c9.9-3.8,20-6.4,30.7-5.4c6.5,0.6,11,4.8,13.3,10.2c4.5,10.3,7.8,21.1,11.9,31.6c2.7,7.1,4.7,14.8,8.9,20.8
		c7.7,11.1,20.9,11.2,29,0.3c4.1-5.6,6.7-12.6,8.7-19.3c3.4-11.7,6.3-23.5,12.7-34c4.2-6.9,10.1-10.1,18.3-9.8
		c9.1,0.4,17.6,2.9,26,5.8C386.8,574.9,386.7,575.6,386.6,576.3z"/>
	<path class="st2" d="M315.7,578.7c-2,2.5-4,5-5.8,7.6c-0.9,1.3-1.5,2.8-2.7,4.9c-1.2-1.7-2-2.7-2.5-3.8c-1.2-2.5-1.5-6.6-5.9-2.8
		c-0.4,0.4-3.1-1-3.1-1.2c0.4-1.8,1.1-3.5,2-5.9c-1.3-1-3.3-2.6-6.1-4.8c-1.8,2.3-3.6,4.4-5.6,6.9c-1.7-2.6-3.8-5.4-5.4-8.4
		c-5.3-9.5-13.1-13.1-23.7-10.8c-2.2,0.5-4.4,0.6-7.4,1c23.6-22.5,83.9-26.4,115.1-0.5c-2.3,0-3.9,0.3-5.2-0.1
		c-13.4-3.7-22,2.3-28,13.7c-0.9,1.7-2,3.4-2.9,5c-0.6-0.2-1.1-0.2-1.2-0.3c-3.6-7.6-4.8-7.7-11.7-0.5
		C315.5,578.8,315.7,578.7,315.7,578.7z M328.6,561.3c-14.9,6.9-28.7,6.5-42.8,0.9c0.8,2.7,1.9,6.1,3.1,6.2c5.2,0.1,7,4.5,9.9,7.2
		c7.4,6.8,9,7,16.4,0c2.4-2.3,4.6-5.8,7.4-6.4C326.7,568.4,327.2,565.9,328.6,561.3z"/>
	<path class="st2" d="M241.9,583c-5.9,2.2-11.7,4.6-17.6,6.7c-2.7,0.9-4,2.3-4.3,5.2c-2.4,20.4,5.9,36.3,20.2,49.7
		c8.8,8.2,19.3,13.5,30.7,16.9c-1.8,5.8-2.6,6.3-7.6,4.3c-18.8-7.6-35.1-18.6-44.9-37c-6.5-12.3-7.6-25.4-3.8-38.8
		c0.4-1.5,1.8-3.5,3.1-3.8c7.9-1.8,15.9-3.2,23.8-4.7C241.7,582.1,241.8,582.5,241.9,583z"/>
	<path class="st2" d="M372.5,582c7.6,1.4,15.3,2.5,22.7,4.5c1.8,0.5,3.6,3.7,4.1,6c4.5,20.4-1.6,37.8-16.2,52.3
		c-9.7,9.7-21.2,16.6-33.9,21.4c-3.6,1.4-3.7,1.3-6.9-4.2c2-0.7,4-1.4,5.9-2.1c20.5-7.7,36.3-20.7,43.2-41.9
		c2.4-7.3,1.9-15.7,2.3-23.6c0.1-1.3-1.9-3.4-3.4-4c-5-2.2-10.2-4-15.3-6c-1-0.4-1.9-1-2.8-1.5C372.3,582.6,372.4,582.3,372.5,582z"
		/>
	<path class="st2" d="M324.4,650.4c3.9,6.6,8.1,13.5,12.1,20.4c0.4,0.7,0.4,2.1,0,2.6c-0.5,0.5-1.9,0.6-2.6,0.3
		C326.6,670.7,321.5,657.5,324.4,650.4z"/>
	<path class="st2" d="M290.7,592c11.3,9.3,21.6,9.1,32.2,0.4c-2.4,6.8-7.9,10.8-14.4,11C300.1,603.7,294.4,600.4,290.7,592z"/>
	<path class="st2" d="M289.3,649c2.5,11.8-3.7,23.7-13.9,25c2.9-4.6,5.4-8.2,7.5-12.1C285.1,658.1,286.9,654,289.3,649z"/>
	<path class="st2" d="M318.3,681.3c-8.4-1.2-10.6-10.7-6-23.8C314.2,665.2,316.2,673.1,318.3,681.3z"/>
	<path class="st2" d="M301.2,657.8c4.8,11.5,2.4,22.1-5.9,23.6C297.2,673.5,299.2,665.6,301.2,657.8z"/>
	<path class="st2" d="M315.5,578.8c0.8,0.5,2.1,0.9,2.3,1.6c0.3,1.2,0.3,2.8-0.3,3.9c-0.2,0.5-2.8,0.5-3.2-0.1
		c-0.6-0.9-0.6-2.5-0.4-3.7c0.1-0.6,1.1-1.2,1.7-1.7C315.7,578.7,315.5,578.8,315.5,578.8z"/>
	<path class="st2" d="M167.1,725.5c-6.2-0.1-10.4-4.3-10.3-10.3c0-6.3,4.4-10.5,10.9-10.3c6.2,0.2,10.5,4.4,10.5,10.3
		C178,721.3,173.3,725.7,167.1,725.5z"/>
	<path class="st3" d="M328.6,561.3c-1.4,4.6-1.9,7-6,7.9c-2.8,0.6-5,4.1-7.4,6.4c-7.5,7-9,6.8-16.4,0c-2.9-2.7-4.7-7-9.9-7.2
		c-1.2,0-2.3-3.5-3.1-6.2C299.9,567.8,313.7,568.2,328.6,561.3z"/>
	<g class="st3">
		
			<image style="overflow:visible;" width="1158" height="1263" id="_x31_t5nO8" xlink:href="58F8537AECE79F5E.jpg"  transform="matrix(0.24 0 0 0.24 29 25)">
		</image>
	</g>
	<g class="st3">
		
			<image style="overflow:visible;" width="400" height="400" id="_x35_FYkRZ" xlink:href="58F8537AECE79F5D.jpg"  transform="matrix(1 -8.987507e-04 8.987507e-04 1 1501 403.3595)">
		</image>
	</g>
	<path class="st4" d="M747.1,545.3c-0.1,0-0.2,0.1-0.3,0.1c0-0.1,0-0.2,0-0.3L747.1,545.3z"/>
	<path class="st4" d="M159,431c0,0,4,7,4,9c0,0,6-8,7-9c0,0-4,0-5-1C165,430,162,431,159,431z"/>
	<path class="st4" d="M163,431"/>
	<path class="st3" d="M847,149c0,0,3,20,6,26v-33C853,142,847,143,847,149z"/>
</g>
<g id="Layer_2">
	<path class="st5" d="M1301.7,287.4h28.8v-32.5v-63.8V105h-50.2v128.9h-175.4l-2.5-2.5l-2.7,2.5H628.3l-2.7-2.5l-2.5,2.5H447.7V105
		h-50.2v86.1v63.8v32.5h28.8C359,349.9,316.9,439.1,316.9,538.1C316.9,726.9,470,880,658.9,880c77,0,148-25.4,205.1-68.4
		c57.2,42.9,128.2,68.4,205.1,68.4c188.8,0,341.9-153.1,341.9-341.9C1411.1,439.1,1369,349.9,1301.7,287.4z M1042.5,287.4L864,454.1
		L685.5,287.4H1042.5z M607.4,287.4L864,527l256.6-239.7h106.8l-79.4,74.2l-20.3,19l-8.5,7.8l-7.7,7.2L998.8,500.9l-31,29L954.8,542
		l-15,14L915,579.2l-51,47.6l-51-47.6L788.2,556l-15-14l-12.9-12.1l-31-29L616.5,395.6l-7.7-7.2l-8.5-7.8l-20.3-19l-79.4-74.2H607.4
		z M864,749.3c-37.1-32.6-66.3-74.1-84.2-121.2c2.7-2.8,5.4-5.8,7.9-8.8l76.2,71.2l76.2-71.2c2.5,3,5.2,5.9,7.9,8.8
		C930.3,675.3,901.1,716.7,864,749.3z M728.2,563.9c1.1,15.1,3.2,29.9,6.2,44.3c-17.2,15.1-38.9,24.5-63.8,24.5
		c-92.3,0-139.3-44.5-139.3-111.8c0-39.6,15.6-76.5,42.8-101L728.2,563.9z M1153.8,419.9c27.2,24.5,42.8,61.5,42.8,101
		c0,67.3-47,111.8-139.3,111.8c-24.9,0-46.6-9.4-63.8-24.5c3-14.5,5.1-29.2,6.2-44.3L1153.8,419.9z M662.5,825.3
		c-168.7,0-305.4-136.8-305.4-305.4c0-85.2,34.8-162.2,91.1-217.5l93.5,87.3c-23.5,22.7-40.4,52.1-47.6,85.2
		c-8.2,20.7-12.5,43.4-12.5,66.8c0,84.6,59.3,140.6,175.2,140.6c14.6,0,28.4-2.6,41.1-7.3c17.8-4.2,34.5-11.3,49.6-20.6
		c16.9,46.9,43.8,89,78.1,123.8C778.5,808,722.5,825.3,662.5,825.3z M1065.5,825.3c-60,0-116-17.3-163.1-47.2
		c34.3-34.9,61.2-77,78.1-123.8c15.1,9.4,31.8,16.4,49.6,20.6c12.7,4.7,26.5,7.3,41.1,7.3c116,0,175.2-56,175.2-140.6
		c0-23.5-4.4-46.2-12.5-66.8c-7.2-33.1-24.1-62.5-47.6-85.2l93.5-87.3c56.3,55.3,91.1,132.4,91.1,217.5
		C1370.9,688.5,1234.2,825.3,1065.5,825.3z"/>
</g>
</svg>
